<?xml version="1.0" ?><svg id="Capa_1" style="enable-background:new 0 0 529 533;" version="1.1" viewBox="0 0 529 533" xml:space="preserve" xmlns="http://www.w3.org/2000/svg" xmlns:xlink="http://www.w3.org/1999/xlink"><style type="text/css">
	.st0{fill:#7E70A9;}
	.st1{fill:#F1F1F5;}
	.st2{fill:#435289;stroke:#435289;stroke-width:14;stroke-miterlimit:10;}
	.st3{fill:#435289;stroke:#435289;stroke-width:5;stroke-miterlimit:10;}
</style><path class="st0" d="M483,522.5H51c-22,0-40-18-40-40v-432c0-22,18-40,40-40h432c22,0,40,18,40,40v432  C523,504.5,505,522.5,483,522.5z"/><path class="st1" d="M395.6,129.8c-13.7-7.8-29.7-10.6-45.2-11.8c-18-1.4-36.2-1-54.2-1.2c-20.3-0.2-40.7-0.4-61-0.5  c-10.3-0.1-20.7-0.2-31-0.3c-3.7,0-7.4-0.2-11.1-0.2c-4.5,0.6-9,1.6-13.4,3c-0.3,0.4-0.6,0.7-0.9,1.2c-1,1.7-3,1.6-4.2,0.6  c-13.8,5.3-26.2,14.8-35,26.6c-10.6,14.3-14.1,30.7-14.8,48.3c-1.7,39.8-2,79.7-2.9,119.5c-0.4,19-0.9,38.5,5.6,56.7  c5.4,15.1,16,28,29.3,36.8c15.2,10.1,32.5,13.5,50.5,14c19.9,0.6,39.8,0.2,59.7,0.2c20.4,0,40.8,0,61.2,0c19,0,39.3,1.2,57.2-6.1  c14.4-5.9,26.4-17,33.8-30.7c9.1-16.7,8.3-35.3,8.6-53.7c0.4-39.6,2-79.3,1.9-119C429.7,182,425.3,146.8,395.6,129.8z M398.5,244.8  c-0.2,16.8-0.3,33.6-0.5,50.4c-0.1,15.6,0.1,31.2-0.6,46.7c-0.6,12.9-2.3,27.3-11.2,37.4c-9.2,10.5-23.5,13.1-36.8,13.8  c-15.2,0.7-30.5,0-45.7-0.1c-33.3-0.2-66.7-0.4-100-0.7c-14.5-0.1-27.4-2.7-38-13.4c-10.8-10.8-13.6-25.5-13.4-40.3  c0.2-15.9,1.7-31.7,1.8-47.6c0.1-16.9-0.5-33.7-0.8-50.6c-0.3-15.7-0.8-31.7,0.7-47.4c0.9-9.9,3.4-20.2,8.8-28.4l0.1-0.1  c8.6-9.5,20.9-13.2,33.3-14.4c14.3-1.5,28.9-0.7,43.3-0.8c33.5-0.1,67-0.1,100.5-0.1c14.7,0,28.8,0.8,40.7,10.5  c11.3,9.1,16.9,22,17.8,36.3C399.6,212.3,398.6,228.7,398.5,244.8z"/><path class="st1" d="M333.7,244.6c-11.1-23.7-36.4-39.2-62.4-39c-0.5,0-0.9-0.1-1.3-0.3c-15.2,2.4-29.6,8.7-40.6,19.7  c-11.1,11-18.3,26-19.8,41.6c-2.7,27.6,13.5,56,39.5,66.4c24.6,9.8,54.6,4.1,72.7-15.5C339.4,298.3,344.8,268.3,333.7,244.6z   M300.7,296.5c-10.8,12.2-27.8,15.7-42.1,7.5c-13.6-7.8-19.8-24-17.2-39.2c2.7-15.7,14.2-27.4,29-29c0.3,0.3,0.8,0.4,1.3,0.4  c7.4-0.1,13.9,0.2,20.6,3.7c6.1,3.3,11.3,8.3,14.5,14.4C314,267.9,310.5,285.3,300.7,296.5z"/><ellipse class="st1" cx="352.3" cy="192.7" rx="12.1" ry="13"/><path class="st2" d="M480.5,525h-432C25.1,525,6,505.9,6,482.5v-432C6,27.1,25.1,8,48.5,8h432C503.9,8,523,27.1,523,50.5v432  C523,505.9,503.9,525,480.5,525z M48.5,13C27.8,13,11,29.8,11,50.5v432c0,20.7,16.8,37.5,37.5,37.5h432c20.7,0,37.5-16.8,37.5-37.5  v-432c0-20.7-16.8-37.5-37.5-37.5H48.5z"/><path class="st3" d="M354.1,175.7c-0.3-0.2-0.6-0.3-0.9-0.3c-5.9-5.4-15.1-2.9-19.3,3.6c-4.7,7.3-2.9,17.7,4,23  c6.2,4.8,15.9,3.9,20.3-2.9C362.8,191.8,361.2,180.6,354.1,175.7z M355.4,195.7c-3.2,6.2-11.4,6.6-16,1.8  c-8.7-8.9-0.2-25.8,11.9-19.8c0.1,0.5,0.3,1,0.8,1.3C357,182.4,358.1,190.6,355.4,195.7z"/><path class="st3" d="M306.8,254.6c-4.2-16.5-23.3-32.6-41.1-28.5c-14.3-1.9-28.1,9.8-33.6,22.8c-6.9,16.4-3.6,37.4,10.2,49.4  c13.7,11.8,33.6,13.1,48.1,2.1C304.1,289.9,311.1,271.4,306.8,254.6z M293.3,291.2c-10.8,12.2-27.8,15.7-42.1,7.5  c-13.6-7.8-19.8-24-17.2-39.2c2.7-15.7,14.2-27.4,29-29c0.3,0.3,0.8,0.4,1.3,0.4c7.4-0.1,13.9,0.2,20.6,3.7  c6.1,3.3,11.3,8.3,14.5,14.4C306.5,262.6,303.1,280,293.3,291.2z"/><path class="st3" d="M336.1,248.8c-7.9-31.7-39-54.3-71.3-54.2c-1.2,0-2,0.6-2.4,1.4c-28.9,2.4-53.7,23.9-61.8,51.9  c-8.4,29,3.3,61.4,28.4,78.2c24.1,16.2,58.4,14.8,81.5-2.7C332.8,306.5,342.8,275.8,336.1,248.8z M315.4,312.1  c-18.1,19.6-48.2,25.4-72.7,15.5c-26-10.4-42.2-38.8-39.5-66.4c1.5-15.6,8.8-30.5,19.8-41.6c11-11,25.4-17.3,40.6-19.7  c0.4,0.2,0.8,0.3,1.3,0.3c26-0.2,51.3,15.3,62.4,39C338.3,263,333,293,315.4,312.1z"/><path class="st3" d="M390.6,166.6c-5.8-11.3-15.8-20.2-27.6-24.9c-15.3-6.1-33.4-3.9-49.5-3.9c-18.6,0-37.1,0-55.7-0.1  c-17.7-0.1-35.4-0.5-53.1-0.2c-7.9,0.1-15.9,0.6-23.7,2.1c-11.6-0.8-22,5.7-29.1,14.9c-8.9,11.7-10.8,27.2-11.4,41.4  c-1.5,36.4,1.5,72.8,0.1,109.2c-0.6,16.4-3.4,33.5,0.8,49.7c3.4,13,12,24,23.7,30.7c13.6,7.7,28.7,6.6,43.8,6.7  c18.2,0.1,36.3,0.3,54.5,0.4c18.5,0.1,37,0.3,55.5,0.4c14.6,0.1,29.8,1,43.9-3.4c12.6-3.9,22.3-12.4,27.3-24.6  c5.4-13.3,5.3-28,5.5-42.1c0.4-36.6,0.8-73.2,1.2-109.8C396.8,197.5,398,181,390.6,166.6z M390.8,238.9c-0.2,16.8-0.3,33.6-0.5,50.4  c-0.1,15.6,0.1,31.2-0.6,46.7c-0.6,12.9-2.3,27.3-11.2,37.4c-9.2,10.5-23.5,13.1-36.8,13.8c-15.2,0.7-30.5,0-45.7-0.1  c-33.3-0.2-66.7-0.4-100-0.7c-14.5-0.1-27.4-2.7-38-13.4c-10.8-10.8-13.6-25.5-13.4-40.3c0.2-15.9,1.7-31.7,1.8-47.6  c0.1-16.9-0.5-33.7-0.8-50.6c-0.3-15.7-0.8-31.7,0.7-47.4c0.9-9.9,3.4-20.2,8.8-28.4l0.1-0.1c8.6-9.5,20.9-13.2,33.3-14.4  c14.3-1.5,28.9-0.7,43.3-0.8c33.5-0.1,67-0.1,100.5-0.1c14.7,0,28.8,0.8,40.7,10.5c11.3,9.1,16.9,22,17.8,36.3  C391.9,206.4,390.9,222.8,390.8,238.9z"/><path class="st3" d="M406.9,135.8c-22.3-25.9-59.9-27.1-91.4-27.4c-44.5-0.4-89.1-1.7-133.6-1c-5.6,0.1-11.5,0.9-15.2,5.2  c-21.6,6.8-40,23.6-48.9,44.5c-7.7,18.1-6.9,38.4-7.4,57.7c-0.5,22-1.1,43.9-1.7,65.9c-0.6,21-2.3,42.4-0.5,63.3  c1.5,17.7,6.4,34.6,17.5,48.8c9.9,12.6,23.5,22.2,38.6,27.5c19.2,6.7,40.4,5.3,60.4,5.2c22.1-0.1,44.1-0.1,66.2-0.2  c21.4-0.1,43.4,1.3,64.7-1.1c16.9-1.9,32.4-7.9,44.9-19.6c12.1-11.3,20.1-26.4,22.6-42.7c1.5-9.8,1.5-19.7,1.7-29.6  c0.3-11,0.6-21.9,0.8-32.9c0.4-22.2,0.8-44.5,1.2-66.7C427.2,200.3,429.6,162.1,406.9,135.8z M419.1,329.3  c-0.2,18.4,0.5,37-8.6,53.7c-7.4,13.6-19.5,24.8-33.8,30.7c-18,7.4-38.2,6.1-57.2,6.1c-20.4,0-40.8,0-61.2,0  c-19.9,0-39.8,0.4-59.7-0.2c-18-0.6-35.3-3.9-50.5-14c-13.3-8.8-23.9-21.8-29.3-36.8c-6.4-18.1-6-37.7-5.6-56.7  c0.9-39.8,1.2-79.7,2.9-119.5c0.8-17.5,4.2-34,14.8-48.3c8.8-11.8,21.3-21.3,35-26.6c1.2,1,3.1,1.1,4.2-0.6c0.3-0.4,0.6-0.8,0.9-1.2  c4.4-1.3,8.9-2.3,13.4-3c3.7,0,7.4,0.1,11.1,0.2c10.3,0.1,20.7,0.2,31,0.3c20.3,0.2,40.7,0.4,61,0.5c18,0.2,36.2-0.2,54.2,1.2  c15.5,1.2,31.5,4,45.2,11.8c29.7,17,34.1,52.3,34.1,83.3C421.1,250,419.5,289.6,419.1,329.3z"/></svg>