<?xml version="1.0" ?><svg id="Capa_1" style="enable-background:new 0 0 531 531;" version="1.1" viewBox="0 0 531 531" xml:space="preserve" xmlns="http://www.w3.org/2000/svg" xmlns:xlink="http://www.w3.org/1999/xlink"><style type="text/css">
	.st0{fill:#E8C75F;}
	.st1{fill:#F1F1F5;}
	.st2{fill:#435289;}
</style><path class="st0" d="M484,521.5H52c-22,0-40-18-40-40v-432c0-22,18-40,40-40h432c22,0,40,18,40,40v432  C524,503.5,506,521.5,484,521.5z"/><path class="st1" d="M413.8,377.2c-4.3,0.1-8.7,0-12.9,0.8c-3.7,0.6-7,1.9-10,4.2c-3.7,2.8-6.1,7.6-11.3,7.5  c-5.3-0.1-9.7-3.7-13.7-6.6s-8.1-5.4-12.8-6.8c-8.9-2.6-18.4-1.2-27,1.5c-19.1,6.1-37.9,23.1-59.1,19.5c-16.6-2.9-28.4-17.6-45-20.7  c-8.9-1.7-17.4,0.3-25.7,3.5c-4.1,1.6-8,3.4-12.1,4.9c-4.1,1.6-10.8,4.9-15.2,3.6c-3.5-1-6-6-9-8.2c-3.3-2.3-7.1-3.7-11-4.5  s-7.8-1.2-11.7-1.7c-3.5-0.4-11.7-0.6-12.6-5.1c-0.8-3.6,4.5-7.8,7-9.6c3.9-2.9,8.1-5.5,12-8.4c7.7-5.9,14.8-12.4,21.3-19.6  c6.4-7.2,12.4-15,16.8-23.5c3.9-7.6,7.8-16.9,6.5-25.6c-3-20.8-32.3-11.6-42-26.4c-5.7-8.7,3.3-16.2,11.9-15.9  c5.2,0.2,10.1,2.4,14.5,5c3.8,2.2,7.8,6,12.6,5.3c1.8-0.2,3.1-1,4.2-2.1c1.8-0.2,3.5-1.5,3.8-3.7c1.5-11.3,2.6-22.6,3.6-34  c1-11,1.6-22.2,4.1-32.9c4.6-19.7,18.5-35.1,36.5-44c33.6-16.5,75-6,96.8,24.4c12.1,16.8,15.5,37.1,16.3,57.4  c0.3,9.4-3.5,40.8,15,36.3c4.4-1.1,8-4.4,12.2-6c4.9-1.9,10.2-2.8,15.5-2.5c4,0.2,11.1,0.9,13.1,5.2c1.8,3.9-1.3,8.7-3.9,11.4  c-6.4,6.6-16.7,7.3-24.3,12c-6.5,4-11,10.3-12.3,17.8c-2.9,17,7.4,33.5,17.3,46.4c5.6,7.3,11.8,14.1,18.7,20.2  c3.3,3,6.8,5.8,10.4,8.5c1.8,1.3,3.6,2.6,5.4,3.8c1.6,1.1,5.7,2.9,6.6,4.8C426.2,377.7,416.4,377.1,413.8,377.2z"/><g><path class="st2" d="M481.5,524h-432C26.1,524,7,504.9,7,481.5v-432C7,26.1,26.1,7,49.5,7h432C504.9,7,524,26.1,524,49.5v432   C524,504.9,504.9,524,481.5,524z M49.5,12C28.8,12,12,28.8,12,49.5v432c0,20.7,16.8,37.5,37.5,37.5h432c20.7,0,37.5-16.8,37.5-37.5   v-432c0-20.7-16.8-37.5-37.5-37.5H49.5z"/><path class="st2" d="M481.5,531h-432C22.2,531,0,508.8,0,481.5v-432C0,22.2,22.2,0,49.5,0h432C508.8,0,531,22.2,531,49.5v432   C531,508.8,508.8,531,481.5,531z M49.5,19C32.7,19,19,32.7,19,49.5v432c0,16.8,13.7,30.5,30.5,30.5h432c16.8,0,30.5-13.7,30.5-30.5   v-432c0-16.8-13.7-30.5-30.5-30.5H49.5z"/></g><g><path class="st2" d="M422.2,362.3c-2-3.5-5.9-5.5-9.1-7.7c-4.3-2.9-8.5-6.1-12.5-9.5c-14.6-12.5-29.9-29.4-35.1-48.3   c-2.4-8.7-2.3-18.9,5.5-24.9c7.4-5.8,17.7-6.4,25.1-12.2c5.7-4.4,10.7-12.1,9.2-19.6c-1.8-9.1-11.2-11.9-19.4-12.6   c-9.9-0.9-18.9,2.1-27.4,7c-2.4,1.3-5,3.1-7.1,0.6c-1-1.2-1.4-3-1.7-4.5c-1-5.2-0.4-10.7-0.5-15.9c-0.3-20.7-2.2-42-12.3-60.5   c-18-32.7-55.6-49.7-92-42.4c-19,3.8-36.8,14.1-48.7,29.4c-13.7,17.5-15,39-17,60.3c-0.9,9.3-1.8,18.6-2.4,28c-2.6,0.7-4,5-1.1,7.2   c-1.8-1.4-2.5-3-4.4-4.2c-1.2-0.8-2.4-1.5-3.6-2.2c-1.9-1.1-3.9-2.2-6-3.1c-4.5-2-9.6-3.4-14.6-3.1c-7.3,0.4-14.9,4.4-18.3,11.1   c-3.8,7.5-0.8,16.1,4.9,21.8c7.3,7.1,17.4,8.2,26.8,10.5c5.3,1.3,10.4,2.6,10.9,8.8c0.4,4.7-1.5,10-3.2,14.3   c-4.2,10.3-11.1,19.5-18.5,27.7c-6.9,7.7-14.7,14.8-23.2,20.8c-6.7,4.8-15.7,9.3-18.3,17.8c-6.1,20,28,15.4,37.5,21.4   c3.4,2.1,5.1,5.8,8.4,8c4.2,2.8,9.1,2.2,13.7,1c9.5-2.3,18.1-7.3,27.4-10c9.9-2.9,18.8-1.6,27.8,3.2c7.9,4.2,15.2,9.6,23.5,13.1   c20.4,8.6,39.4-1.4,57.6-10.5c9.3-4.6,19.5-9,30-8.9c5.5,0.1,10.5,1.6,15.1,4.6s8.7,6.7,14,8.7c3.8,1.4,8,2,12,0.8   c4.4-1.3,6.7-4.6,10-7.5c7.5-6.7,18.3-3.9,27.4-5.1C419.4,375,426.5,369.7,422.2,362.3z M404.8,369.2c-4.3,0.1-8.7,0-12.9,0.8   c-3.7,0.6-7,1.9-10,4.2c-3.7,2.8-6.1,7.6-11.3,7.5c-5.3-0.1-9.7-3.7-13.7-6.6s-8.1-5.4-12.8-6.8c-8.9-2.6-18.4-1.2-27,1.5   c-19.1,6.1-37.9,23.1-59.1,19.5c-16.6-2.9-28.4-17.6-45-20.7c-8.9-1.7-17.4,0.3-25.7,3.5c-4.1,1.6-8,3.4-12.1,4.9   c-4.1,1.6-10.8,4.9-15.2,3.6c-3.5-1-6-6-9-8.2c-3.3-2.3-7.1-3.7-11-4.5s-7.8-1.2-11.7-1.7c-3.5-0.4-11.7-0.6-12.6-5.1   c-0.8-3.6,4.5-7.8,7-9.6c3.9-2.9,8.1-5.5,12-8.4c7.7-5.9,14.8-12.4,21.3-19.6c6.4-7.2,12.4-15,16.8-23.5c3.9-7.6,7.8-16.9,6.5-25.6   c-3-20.8-32.3-11.6-42-26.4c-5.7-8.7,3.3-16.2,11.9-15.9c5.2,0.2,10.1,2.4,14.5,5c3.8,2.2,7.8,6,12.6,5.3c1.8-0.2,3.1-1,4.2-2.1   c1.8-0.2,3.5-1.5,3.8-3.7c1.5-11.3,2.6-22.6,3.6-34c1-11,1.6-22.2,4.1-32.9c4.6-19.7,18.5-35.1,36.5-44c33.6-16.5,75-6,96.8,24.4   c12.1,16.8,15.5,37.1,16.3,57.4c0.3,9.4-3.5,40.8,15,36.3c4.4-1.1,8-4.4,12.2-6c4.9-1.9,10.2-2.8,15.5-2.5c4,0.2,11.1,0.9,13.1,5.2   c1.8,3.9-1.3,8.7-3.9,11.4c-6.4,6.6-16.7,7.3-24.3,12c-6.5,4-11,10.3-12.3,17.8c-2.9,17,7.4,33.5,17.3,46.4   c5.6,7.3,11.8,14.1,18.7,20.2c3.3,3,6.8,5.8,10.4,8.5c1.8,1.3,3.6,2.6,5.4,3.8c1.6,1.1,5.7,2.9,6.6,4.8   C417.2,369.7,407.4,369.1,404.8,369.2z"/><path class="st2" d="M262.7,399.4c-5.6,0-11.3-1-17.2-3.5c-5.3-2.2-10.2-5.2-14.9-8.1c-2.9-1.7-5.8-3.5-8.8-5.1   c-8.8-4.7-17-5.6-25.9-3c-4.1,1.2-8.1,2.8-12.2,4.6c-4.9,2-10,4.2-15.3,5.5c-4.5,1.2-10.5,2.1-15.7-1.3c-1.9-1.3-3.2-2.8-4.6-4.3   c-1.2-1.4-2.4-2.7-3.8-3.6c-2.6-1.6-8.2-2.5-13.5-3.3c-9.4-1.4-20-3-24.2-9.6c-1.9-3.1-2.2-6.9-0.9-11.3   c2.4-7.8,9.3-12.4,15.5-16.5c1.3-0.9,2.6-1.7,3.8-2.6c8.1-5.7,15.8-12.6,22.8-20.4c8.8-9.7,14.5-18.3,18-27c1.8-4.5,3.4-9.2,3-13.1   c-0.3-4-3-5.1-9-6.6c-1.6-0.4-3.2-0.7-4.8-1.1c-8.2-1.8-16.6-3.7-23.2-10c-7.2-7.2-9.3-16.9-5.4-24.7c3.6-7.1,11.6-12,20.4-12.5   c4.8-0.3,10.2,0.8,15.8,3.3c2.3,1,4.4,2.2,6.2,3.2c1.1,0.7,2.3,1.3,3.4,2.1c0.5-0.9,1.2-1.7,2-2.3c0.6-9,1.5-18,2.3-26.7l0.3-3.4   c1.9-20.2,3.8-41.1,17.2-58.2c11.9-15.3,30.2-26.3,50.2-30.3c18.4-3.7,37.3-1.5,54.4,6.4c17.3,7.9,31.2,20.8,40.2,37.3   c10.6,19.4,12.3,42.1,12.6,61.7c0,1.6,0,3.3,0,4.9c-0.1,3.5-0.2,7.2,0.5,10.6c0.2,1,0.5,2.6,1.2,3.4c0.4,0.5,0.6,0.7,3.3-0.8   l0.7-0.4c10-5.8,19.4-8.1,28.8-7.3c15.8,1.3,20.5,8.7,21.6,14.6c1.8,9.1-4.3,17.6-10.1,22.1c-4,3.1-8.7,4.8-13.2,6.5   c-4.4,1.6-8.5,3.1-11.9,5.7c-7.7,6-6.2,16.5-4.6,22.3c4.2,15.1,16,31.4,34.3,47.1c4,3.4,8.1,6.5,12.3,9.3c0.6,0.4,1.2,0.8,1.9,1.2   c2.8,1.8,6.1,3.9,8,7.3c2.5,4.3,1.7,7.7,0.6,9.9c-2,3.9-6.7,6.7-12.1,7.3c-2.8,0.4-5.8,0.4-8.7,0.4c-6.6,0-12.8,0-17.3,4.1   c-0.8,0.7-1.6,1.4-2.3,2.2c-2.4,2.3-4.8,4.7-8.7,5.9c-4.1,1.2-8.7,0.9-13.6-0.9c-4.1-1.5-7.4-3.9-10.6-6.3   c-1.3-0.9-2.6-1.8-3.9-2.7c-4.2-2.7-8.7-4.1-13.8-4.2c-0.1,0-0.2,0-0.3,0c-9.7,0-19.4,4.1-28.5,8.6l-1.4,0.7   C290.6,392.6,277.1,399.4,262.7,399.4z M205.4,373.3c6.3,0,12.5,1.7,18.8,5c3.1,1.6,6.1,3.5,9.1,5.3c4.6,2.8,9.3,5.7,14.2,7.7   c18.8,7.9,36.8-1.1,54.1-9.7l1.4-0.7c9.6-4.8,20-9.2,30.8-9.2c0.1,0,0.2,0,0.4,0c6,0.1,11.5,1.8,16.4,5c1.4,0.9,2.7,1.9,4,2.8   c3.1,2.2,6,4.3,9.5,5.6c3.8,1.4,7.3,1.7,10.4,0.7c2.7-0.8,4.5-2.6,6.6-4.6c0.8-0.8,1.6-1.6,2.5-2.3c6-5.3,13.8-5.3,20.6-5.4   c2.9,0,5.5,0,8.1-0.3c3.7-0.4,7.1-2.3,8.3-4.6c0.8-1.5,0.6-3.2-0.5-5.1l0,0c-1.3-2.3-3.9-4-6.4-5.6c-0.7-0.4-1.3-0.9-2-1.3   c-4.3-2.9-8.6-6.2-12.7-9.7c-19.3-16.5-31.4-33.2-35.9-49.5c-3.3-12-1.1-21.8,6.4-27.5c4-3.1,8.7-4.8,13.2-6.5   c4.4-1.6,8.5-3.1,11.9-5.7c5.1-3.9,9.6-10.7,8.3-17.1c-1.2-6.2-7-9.7-17.2-10.6c-8.5-0.8-16.7,1.4-25.9,6.7l-0.7,0.4   c-2.2,1.2-6.3,3.5-9.6-0.3c-1.4-1.6-1.9-3.8-2.2-5.6c-0.8-3.9-0.7-7.8-0.6-11.6c0-1.6,0.1-3.2,0-4.7c-0.3-19-1.9-40.9-12-59.4   c-8.5-15.5-21.7-27.7-37.9-35.1c-16.2-7.4-34-9.5-51.4-6c-18.9,3.8-36.1,14.2-47.2,28.5c-12.5,16-14.3,35.2-16.2,55.6l-0.3,3.4   c-0.9,9.1-1.8,18.6-2.4,27.9l-0.1,1.8l-1.7,0.5c-0.3,0.1-0.7,0.6-0.8,1.2c-0.1,0.6,0,1.1,0.5,1.5c0,0,0.1,0.1,0.1,0.1l-3,4   c-0.1-0.1-0.2-0.1-0.2-0.2c-0.9-0.7-1.5-1.5-2.1-2.1c-0.6-0.7-1.1-1.3-1.9-1.8c-1.2-0.8-2.3-1.4-3.5-2.1c-1.7-1-3.7-2.1-5.7-3   c-4.9-2.2-9.4-3.1-13.5-2.9c-6.9,0.4-13.5,4.3-16.2,9.7c-3.6,7.1,0.1,14.6,4.4,18.9c5.5,5.4,12.9,7,20.7,8.7   c1.6,0.4,3.3,0.7,4.9,1.1c5.4,1.3,12.1,3,12.8,11c0.4,5-1.4,10.4-3.4,15.4c-3.8,9.3-9.8,18.3-19,28.5c-7.3,8.1-15.2,15.2-23.6,21.2   c-1.2,0.9-2.6,1.8-3.9,2.6c-5.7,3.8-11.6,7.7-13.5,13.8c-0.9,3-0.8,5.4,0.3,7.2c2.9,4.6,12.4,6.1,20.7,7.3c6.1,0.9,12,1.8,15.4,4   c2.1,1.3,3.5,3,4.9,4.6c1.1,1.3,2.2,2.6,3.5,3.5c3.5,2.3,7.9,1.7,11.7,0.7c5-1.2,9.9-3.2,14.6-5.2c4.1-1.7,8.4-3.5,12.7-4.8   C198.2,373.8,201.8,373.3,205.4,373.3z M264,392.3c-2.1,0-4.2-0.2-6.4-0.5c-8.8-1.5-16.3-6.2-23.5-10.7c-7.1-4.4-13.7-8.5-21.5-10   c-7.2-1.4-14.7-0.3-24.3,3.4c-1.7,0.7-3.4,1.4-5.1,2.1c-2.3,1-4.7,2-7.1,2.8c-0.5,0.2-1.2,0.5-1.9,0.8c-4.3,1.8-10.3,4.3-14.9,2.9   c-2.8-0.8-4.9-3.3-6.8-5.5c-1-1.2-2-2.4-3-3.1c-2.7-1.9-6.1-3.3-10-4.1c-3-0.6-6.1-1-9.2-1.4c-0.8-0.1-1.6-0.2-2.4-0.3   c-0.3,0-0.8-0.1-1.3-0.1c-4.6-0.4-12.3-1.2-13.5-7c-0.8-3.6,1.9-7.7,8-12.1c2-1.5,4-2.9,6.1-4.2c2-1.3,4-2.7,5.9-4.1   c7.6-5.8,14.7-12.3,20.9-19.3c7.4-8.3,12.6-15.7,16.4-23c3.5-6.9,7.5-15.9,6.2-24.1c-1.4-9.9-9.9-11.9-19.7-14.1   c-8.4-1.9-17.1-3.9-21.9-11.3c-2.6-4-2.9-8.3-0.8-12.1c2.6-4.7,8.8-7.8,14.9-7.6c4.8,0.2,9.8,1.9,15.7,5.3c0.9,0.5,1.8,1.1,2.7,1.7   c2.8,1.9,5.5,3.6,8.2,3.2c1.1-0.1,1.9-0.5,2.8-1.4l0.6-0.6l0.9-0.1c0.2,0,1.4-0.2,1.6-1.6c1.6-12,2.7-23.9,3.6-33.9   c0.2-1.9,0.3-3.9,0.5-5.8c0.8-9.1,1.6-18.4,3.7-27.4c4.5-19.4,18.3-36,37.8-45.7c34.5-17,77.5-6.1,99.9,25.2   c13.5,18.8,16.1,41.3,16.8,58.8c0,1.4,0,3.3,0,5.4c-0.2,8.6-0.5,23.1,5.1,27.6c1.7,1.4,4,1.7,6.9,1c2.1-0.5,4.1-1.7,6.3-3   c1.8-1.1,3.6-2.1,5.6-2.9c5.3-2.1,11-3,16.5-2.7c3.1,0.2,12.4,0.6,15.2,6.6c2.2,4.8-0.8,10.5-4.4,14.2c-4.2,4.4-9.8,6.3-15.1,8.2   c-3.5,1.2-6.8,2.4-9.6,4.2c-6,3.7-10,9.4-11.2,16.1c-2.8,16.3,7.5,32.3,16.8,44.5c5.7,7.4,11.9,14.1,18.4,19.8   c2.9,2.7,6.3,5.4,10.2,8.4c1.7,1.2,3.5,2.5,5.3,3.7c0.4,0.3,1,0.6,1.6,0.9c2.3,1.3,4.9,2.8,5.9,4.9c0.9,2.1,0.3,3.6-0.2,4.3   c-1.8,2.8-6.4,3-11.3,3c-0.5,0-0.9,0-1.2,0l0,0c-0.8,0-1.6,0-2.4,0c-3.4,0-6.9,0.1-10.1,0.7c-3.5,0.6-6.4,1.8-8.9,3.7   c-1,0.7-1.9,1.7-2.8,2.6c-2.5,2.5-5.2,5.4-9.8,5.4c-0.1,0-0.1,0-0.2,0c-5.6-0.1-10.1-3.4-14.1-6.3l-1.1-0.8   c-4.7-3.4-8.3-5.3-12-6.4c-7.2-2.1-15.6-1.6-25.5,1.5c-6.2,2-12.4,5.1-18.9,8.5C287.8,386.4,276.4,392.3,264,392.3z M206.3,365.5   c2.4,0,4.8,0.2,7.1,0.7c8.7,1.6,16.1,6.2,23.2,10.7c7.1,4.4,13.9,8.6,21.8,10c13.2,2.2,26-4.3,38.3-10.6c6.4-3.3,13-6.7,19.6-8.8   c10.9-3.4,20.2-3.9,28.5-1.5c5.5,1.6,10.1,4.7,13.6,7.2l1.1,0.8c3.5,2.6,7.2,5.3,11.2,5.3c0,0,0.1,0,0.1,0c2.4,0,3.9-1.5,6.3-3.9   c1-1.1,2.1-2.2,3.4-3.1c3.2-2.5,6.8-4,11.1-4.7c3.6-0.7,7.3-0.7,10.9-0.8c0.8,0,1.5,0,2.3,0c0.4,0,0.8,0,1.4,0   c3.4,0,5.6-0.2,6.7-0.6c-0.7-0.7-2.7-1.8-3.5-2.3c-0.8-0.4-1.4-0.8-1.9-1.2c-1.8-1.2-3.6-2.5-5.4-3.8c-4.2-3.1-7.6-5.9-10.6-8.7   c-6.7-5.9-13.1-12.8-19-20.5c-9.9-12.9-20.9-30.1-17.8-48.3c1.4-8.1,6.2-15,13.5-19.5c3.3-2,7-3.4,10.6-4.6c5-1.8,9.8-3.5,13.2-7   c2.5-2.6,4.5-6.3,3.4-8.6c-0.7-1.5-3.2-3.4-11-3.8c-4.8-0.3-9.8,0.5-14.5,2.3c-1.6,0.6-3.2,1.6-4.9,2.5c-2.3,1.4-4.8,2.8-7.6,3.5   c-4.5,1.1-8.3,0.4-11.2-1.9c-7.5-6-7.2-21.4-6.9-31.6c0-2,0.1-3.8,0-5.1c-0.7-16.8-3.1-38.3-15.8-56c-21-29.4-61.3-39.5-93.7-23.6   c-18.2,9-31,24.4-35.2,42.3c-2,8.6-2.8,17.8-3.5,26.7c-0.2,2-0.3,3.9-0.5,5.9c-0.9,10-2,22-3.6,34.1c-0.4,2.9-2.4,5-5.1,5.7   c-1.5,1.3-3.2,2-5.1,2.3c-4.6,0.7-8.3-1.8-11.7-4c-0.9-0.6-1.7-1.1-2.5-1.6c-5.1-3-9.4-4.5-13.3-4.7c-4.3-0.2-8.6,2-10.3,5.1   c-1.2,2.2-1,4.5,0.6,7c3.7,5.7,11.1,7.4,18.8,9.1c10.1,2.3,21.6,5,23.6,18.3c1.4,9.6-2.9,19.5-6.8,27.1c-4,7.7-9.4,15.3-17.2,24   c-6.5,7.2-13.8,13.9-21.6,19.9c-2,1.5-4.1,2.9-6.1,4.3c-2,1.3-4,2.7-5.9,4.1c-5.2,3.7-6.2,6.2-6.1,7.1c0.4,2.2,6.5,2.8,9,3   c0.5,0,1,0.1,1.4,0.1c0.8,0.1,1.6,0.2,2.4,0.3c3.1,0.4,6.3,0.8,9.6,1.4c4.6,0.9,8.6,2.6,11.9,4.9c1.5,1.1,2.7,2.5,3.9,3.9   c1.5,1.7,3,3.5,4.4,3.9c2.9,0.9,8.1-1.3,11.6-2.7c0.7-0.3,1.4-0.6,2-0.8c2.4-0.9,4.6-1.8,6.9-2.8c1.7-0.7,3.4-1.4,5.2-2.1   C193.9,366.9,200.3,365.5,206.3,365.5z"/></g></svg>